<?xml version="1.0" encoding="iso-8859-1"?>
<!-- Generator: Adobe Illustrator 19.0.0, SVG Export Plug-In . SVG Version: 6.00 Build 0)  -->
<svg version="1.1" id="Capa_1" xmlns="http://www.w3.org/2000/svg" xmlns:xlink="http://www.w3.org/1999/xlink" x="0px" y="0px"
	 viewBox="0 0 496.011 496.011" style="enable-background:new 0 0 496.011 496.011;" xml:space="preserve">
<g>
	<g>
		<path d="M120.009,48.011c-39.696,0-72,32.304-72,72s32.304,72,72,72s72-32.304,72-72S159.705,48.011,120.009,48.011z
			 M120.009,176.011c-30.88,0-56-25.12-56-56s25.12-56,56-56s56,25.12,56,56S150.889,176.011,120.009,176.011z"/>
	</g>
</g>
<g>
	<g>
		<path d="M120.009,88.011c-17.648,0-32,14.352-32,32s14.352,32,32,32s32-14.352,32-32S137.657,88.011,120.009,88.011z
			 M120.009,136.011c-8.824,0-16-7.176-16-16c0-8.824,7.176-16,16-16c8.824,0,16,7.176,16,16S128.833,136.011,120.009,136.011z"/>
	</g>
</g>
<g>
	<g>
		<path d="M184.177,343.379c-8.072-15.784-11.12-31.944-8.832-46.736c1.088-7.032,0.832-14.232-0.76-21.384
			c-4.608-20.704-21.672-37.568-42.464-41.968c-16.912-3.584-34.184,0.512-47.368,11.208
			c-13.184,10.688-20.744,26.552-20.744,43.512c0,1.928,0.096,3.832,0.288,5.696c1.904,18.832-0.752,35.176-7.896,48.608
			c-7.496,14.072-10.032,30-7.352,46.04c5.232,31.288,31,55.624,62.656,59.184c2.72,0.304,5.44,0.456,8.144,0.456
			c17.704,0,34.896-6.464,48.136-18.296c15.264-13.648,24.024-33.216,24.024-53.688
			C192.009,364.531,189.369,353.547,184.177,343.379z M157.313,417.779c-12.048,10.768-27.664,15.656-43.832,13.864
			c-24.2-2.72-44.664-22.032-48.664-45.928c-2.096-12.536-0.128-24.944,5.696-35.88c8.664-16.272,11.928-35.696,9.688-57.744
			c-0.128-1.336-0.192-2.704-0.192-4.08c0-12.12,5.408-23.448,14.832-31.088c7.176-5.816,16.072-8.888,25.288-8.888
			c2.88,0,5.8,0.304,8.696,0.912c14.768,3.12,26.88,15.088,30.152,29.784c1.16,5.2,1.344,10.4,0.56,15.456
			c-2.816,18.144,0.784,37.672,10.392,56.472c4.032,7.896,6.08,16.424,6.08,25.352C176.009,391.931,169.193,407.155,157.313,417.779
			z"/>
	</g>
</g>
<g>
	<g>
		<path d="M120.009,344.011c-17.648,0-32,14.352-32,32s14.352,32,32,32s32-14.352,32-32S137.657,344.011,120.009,344.011z
			 M120.009,392.011c-8.824,0-16-7.176-16-16c0-8.824,7.176-16,16-16c8.824,0,16,7.176,16,16
			C136.009,384.835,128.833,392.011,120.009,392.011z"/>
	</g>
</g>
<g>
	<g>
		<path d="M216.009,248.011c0-28.424,5.472-57.232,16.248-85.624c6.872-18.088,9.192-37.16,6.92-56.688
			C232.481,48.403,183.881,3.035,126.129,0.163C92.825-1.541,61.337,10.195,37.305,33.067c-24.048,22.88-37.296,53.76-37.296,86.944
			c0,14.536,2.592,28.752,7.704,42.256c10.816,28.552,16.296,57.4,16.296,85.744c0,28.424-5.472,57.232-16.248,85.624
			c-6.864,18.088-9.192,37.16-6.912,56.68c6.696,57.296,55.296,102.664,113.048,105.536c2.072,0.104,4.136,0.16,6.184,0.16
			c30.952,0,60.096-11.616,82.64-33.056c24.04-22.88,37.288-53.76,37.288-86.944c0-14.536-2.592-28.752-7.704-42.256
			C221.489,305.203,216.009,276.355,216.009,248.011z M191.681,451.363c-20.832,19.824-48.288,29.88-77,28.512
			c-50.032-2.488-92.144-41.784-97.944-91.408c-1.976-16.952,0.032-33.488,5.984-49.152c11.472-30.208,17.288-60.936,17.288-91.304
			c0-30.288-5.832-61.04-17.336-91.408c-4.424-11.688-6.664-24-6.664-36.592c0-28.76,11.48-55.52,32.328-75.352
			c19.528-18.592,44.792-28.648,71.624-28.648c1.784,0,3.576,0.048,5.368,0.136c50.04,2.488,92.152,41.784,97.952,91.408
			c1.976,16.952-0.032,33.488-5.984,49.152c-11.472,30.208-17.288,60.936-17.288,91.304c0,30.288,5.832,61.04,17.336,91.408
			c4.424,11.688,6.664,24,6.664,36.592C224.009,404.771,212.529,431.531,191.681,451.363z"/>
	</g>
</g>
<g>
	<g>
		<path d="M120.009,264.011c-13.232,0-24,10.768-24,24s10.768,24,24,24s24-10.768,24-24S133.241,264.011,120.009,264.011z
			 M120.009,296.011c-4.408,0-8-3.592-8-8c0-4.408,3.592-8,8-8s8,3.592,8,8C128.009,292.419,124.417,296.011,120.009,296.011z"/>
	</g>
</g>
<g>
	<g>
		<path d="M496.009,176.011v-16h-16.408c-1.704-20.464-9.808-39.104-22.36-53.928l11.616-11.616l-11.312-11.312l-11.616,11.616
			c-14.816-12.552-33.464-20.656-53.928-22.36v-16.4h-16v16.408c-20.464,1.704-39.104,9.808-53.928,22.36l-11.616-11.616
			l-11.312,11.312l11.616,11.616c-12.552,14.816-20.656,33.464-22.36,53.928h-16.392v16h16v64h-16v16h16v56h-16v16h16
			c0,23.8,8.752,45.552,23.144,62.344l-11.192,11.192l11.312,11.312l11.232-11.232c14.944,12.504,33.736,20.48,54.304,22.016v16.36
			h16v-16.448c20.352-1.864,38.848-10.104,53.544-22.696l12,12l11.312-11.312l-12.04-12.04
			c13.952-16.672,22.384-38.112,22.384-61.504h16v-16h-16v-56h16v-16h-16v-64H496.009z M464.009,328.011c0,44.112-35.888,80-80,80
			s-80-35.888-80-80v-160c0-44.112,35.888-80,80-80s80,35.888,80,80V328.011z"/>
	</g>
</g>
<g>
	<g>
		<path d="M360.009,120.011c-13.232,0-24,10.768-24,24s10.768,24,24,24s24-10.768,24-24S373.241,120.011,360.009,120.011z
			 M360.009,152.011c-4.408,0-8-3.592-8-8s3.592-8,8-8c4.408,0,8,3.592,8,8S364.417,152.011,360.009,152.011z"/>
	</g>
</g>
<g>
	<g>
		<path d="M416.009,280.011c-13.232,0-24,10.768-24,24s10.768,24,24,24s24-10.768,24-24S429.241,280.011,416.009,280.011z
			 M416.009,312.011c-4.408,0-8-3.592-8-8c0-4.408,3.592-8,8-8c4.408,0,8,3.592,8,8
			C424.009,308.419,420.417,312.011,416.009,312.011z"/>
	</g>
</g>
<g>
	<g>
		<path d="M432.009,176.011c0,13.232-10.768,24-24,24v16c22.056,0,40-17.944,40-40H432.009z"/>
	</g>
</g>
<g>
	<g>
		<path d="M336.009,312.011h-16c0,22.056,17.944,40,40,40v-16C346.777,336.011,336.009,325.243,336.009,312.011z"/>
	</g>
</g>
<g>
	<g>
		<rect x="336.009" y="184.011" width="16" height="16"/>
	</g>
</g>
<g>
	<g>
		<rect x="368.009" y="256.011" width="16" height="16"/>
	</g>
</g>
<g>
	<g>
		<rect x="392.009" y="360.011" width="16" height="16"/>
	</g>
</g>
<g>
	<g>
		<rect x="416.009" y="136.011" width="16" height="16"/>
	</g>
</g>
<g>
</g>
<g>
</g>
<g>
</g>
<g>
</g>
<g>
</g>
<g>
</g>
<g>
</g>
<g>
</g>
<g>
</g>
<g>
</g>
<g>
</g>
<g>
</g>
<g>
</g>
<g>
</g>
<g>
</g>
</svg>
