<?xml version="1.0" encoding="iso-8859-1"?>
<!-- Generator: Adobe Illustrator 19.0.0, SVG Export Plug-In . SVG Version: 6.00 Build 0)  -->
<svg version="1.1" id="Capa_1" xmlns="http://www.w3.org/2000/svg" xmlns:xlink="http://www.w3.org/1999/xlink" x="0px" y="0px"
	 viewBox="0 0 496 496" style="enable-background:new 0 0 496 496;" xml:space="preserve">
<g>
	<g>
		<path d="M464,256c17.648,0,32-14.352,32-32s-14.352-32-32-32c-5.92,0-11.392,1.72-16.152,4.536l-29.352-29.352
			C426.928,156.336,432,142.768,432,128s-5.072-28.336-13.504-39.184l29.352-29.352C452.608,62.28,458.08,64,464,64
			c17.648,0,32-14.352,32-32S481.648,0,464,0s-32,14.352-32,32c0,5.92,1.72,11.392,4.536,16.152l-29.352,29.352
			C396.336,69.072,382.768,64,368,64c-16.84,0-32.144,6.592-43.584,17.264l-46.368-38.64C279.232,39.28,280,35.744,280,32
			c0-17.648-14.352-32-32-32s-32,14.352-32,32c0,3.744,0.768,7.28,1.952,10.624l-46.368,38.64C160.144,70.592,144.84,64,128,64
			c-14.768,0-28.336,5.072-39.184,13.504L59.464,48.152C62.28,43.392,64,37.92,64,32C64,14.352,49.648,0,32,0S0,14.352,0,32
			s14.352,32,32,32c5.92,0,11.392-1.72,16.152-4.536l29.352,29.352C69.072,99.664,64,113.232,64,128s5.072,28.336,13.504,39.184
			l-29.352,29.352C43.392,193.72,37.92,192,32,192c-17.648,0-32,14.352-32,32s14.352,32,32,32s32-14.352,32-32
			c0-5.92-1.72-11.392-4.536-16.152l29.352-29.352C99.664,186.928,113.232,192,128,192c17.152,0,32.72-6.824,44.224-17.848
			l45.736,39.2c-1.192,3.352-1.96,6.896-1.96,10.648c0,7.632,2.8,14.56,7.28,20.064l-1.424-1.184l-59.392,71.272
			C152.496,307.76,140.688,304,128,304c-20.672,0-39.024,9.888-50.736,25.144l-14.6-8.512C63.448,317.864,64,315.008,64,312
			c0-17.648-14.352-32-32-32S0,294.352,0,312s14.352,32,32,32c8.872,0,16.904-3.64,22.712-9.496l14.424,8.416
			C65.832,350.624,64,359.104,64,368c0,14.768,5.072,28.336,13.504,39.184l-29.352,29.352C43.392,433.72,37.92,432,32,432
			c-17.648,0-32,14.352-32,32s14.352,32,32,32s32-14.352,32-32c0-5.92-1.72-11.392-4.536-16.152l29.352-29.352
			C99.664,426.928,113.232,432,128,432c35.288,0,64-28.712,64-64c0-1.288-0.12-2.552-0.192-3.824l35.312-6.624
			C232.24,368.416,243.216,376,256,376c9.6,0,18.128-4.336,24-11.056l30.456,15.232C306.36,388.6,304,398.016,304,408
			c0,4.968,0.624,9.784,1.704,14.424l-63.44,23.368C236.48,437.48,226.88,432,216,432c-17.648,0-32,14.352-32,32s14.352,32,32,32
			s32-14.352,32-32c0-1.08-0.216-2.096-0.32-3.144l63.552-23.416C321.912,457.944,343.328,472,368,472
			c20.672,0,39.024-9.888,50.736-25.144l14.6,8.512C432.552,458.136,432,460.992,432,464c0,17.648,14.352,32,32,32s32-14.352,32-32
			s-14.352-32-32-32c-8.872,0-16.904,3.64-22.712,9.496l-14.424-8.416C430.168,425.376,432,416.896,432,408
			c0-32.576-24.48-59.488-56-63.448v-41.688c13.768-3.576,24-16,24-30.864c0-17.648-14.352-32-32-32s-32,14.352-32,32
			c0,14.864,10.232,27.288,24,30.864v41.688c-16.28,2.04-30.664,10.192-40.776,22.112l-31.952-15.976
			c0.464-2.16,0.728-4.392,0.728-6.688c0-17.648-14.352-32-32-32c-16.904,0-30.632,13.208-31.776,29.816l-35.304,6.616
			c-2.92-9.064-7.832-17.216-14.184-24.024l59.416-71.296l-1.392-1.16c4.544,2.504,9.688,4.048,15.24,4.048
			c17.648,0,32-14.352,32-32c0-4.512-0.96-8.792-2.648-12.688L324.4,174.72C335.84,185.4,351.144,192,368,192
			c14.768,0,28.336-5.072,39.184-13.504l29.352,29.352C433.72,212.608,432,218.08,432,224C432,241.648,446.352,256,464,256z
			 M464,208c8.824,0,16,7.176,16,16c0,8.824-7.176,16-16,16c-8.824,0-16-7.176-16-16C448,215.176,455.176,208,464,208z M464,16
			c8.824,0,16,7.176,16,16s-7.176,16-16,16c-8.824,0-16-7.176-16-16S455.176,16,464,16z M32,48c-8.824,0-16-7.176-16-16
			s7.176-16,16-16s16,7.176,16,16S40.824,48,32,48z M32,240c-8.824,0-16-7.176-16-16c0-8.824,7.176-16,16-16s16,7.176,16,16
			C48,232.824,40.824,240,32,240z M32,328c-8.824,0-16-7.176-16-16c0-8.824,7.176-16,16-16s16,7.176,16,16
			C48,320.824,40.824,328,32,328z M32,480c-8.824,0-16-7.176-16-16c0-8.824,7.176-16,16-16s16,7.176,16,16
			C48,472.824,40.824,480,32,480z M216,480c-8.824,0-16-7.176-16-16c0-8.824,7.176-16,16-16c8.824,0,16,7.176,16,16
			C232,472.824,224.824,480,216,480z M464,448c8.824,0,16,7.176,16,16c0,8.824-7.176,16-16,16c-8.824,0-16-7.176-16-16
			C448,455.176,455.176,448,464,448z M352,272c0-8.824,7.176-16,16-16c8.824,0,16,7.176,16,16c0,8.824-7.176,16-16,16
			C359.176,288,352,280.824,352,272z M368,360c26.472,0,48,21.528,48,48s-21.528,48-48,48s-48-21.528-48-48S341.528,360,368,360z
			 M256,328c8.824,0,16,7.176,16,16c0,8.824-7.176,16-16,16c-8.824,0-16-7.176-16-16C240,335.176,247.176,328,256,328z M176,368
			c0,26.472-21.528,48-48,48s-48-21.528-48-48s21.528-48,48-48S176,341.528,176,368z M248,16c8.824,0,16,7.176,16,16
			s-7.176,16-16,16c-8.824,0-16-7.176-16-16S239.176,16,248,16z M128,176c-26.472,0-48-21.528-48-48s21.528-48,48-48
			s48,21.528,48,48S154.472,176,128,176z M248,240c-8.824,0-16-7.176-16-16c0-8.824,7.176-16,16-16c8.824,0,16,7.176,16,16
			C264,232.824,256.824,240,248,240z M314.136,162.424l-46.704,36.328C262.024,194.584,255.336,192,248,192
			c-8.064,0-15.36,3.096-20.992,8.04l-44.712-38.32C188.408,151.912,192,140.384,192,128c0-12.688-3.76-24.496-10.152-34.456
			l45.128-37.608C232.616,60.888,239.92,64,248,64s15.384-3.112,21.024-8.064l45.128,37.608C307.76,103.504,304,115.312,304,128
			C304,140.672,307.752,152.472,314.136,162.424z M368,176c-26.472,0-48-21.528-48-48s21.528-48,48-48s48,21.528,48,48
			S394.472,176,368,176z"/>
	</g>
</g>
<g>
	<g>
		<rect x="352" y="376" width="16" height="16"/>
	</g>
</g>
<g>
	<g>
		<rect x="360" y="408" width="16" height="16"/>
	</g>
</g>
<g>
	<g>
		<rect x="136" y="344" width="16" height="16"/>
	</g>
</g>
<g>
	<g>
		<rect x="128" y="384" width="16" height="16"/>
	</g>
</g>
<g>
	<g>
		<rect x="96" y="352" width="16" height="16"/>
	</g>
</g>
<g>
	<g>
		<rect x="120" y="104" width="16" height="16"/>
	</g>
</g>
<g>
	<g>
		<rect x="152" y="128" width="16" height="16"/>
	</g>
</g>
<g>
	<g>
		<rect x="96" y="128" width="16" height="16"/>
	</g>
</g>
<g>
	<g>
		<rect x="336" y="128" width="16" height="16"/>
	</g>
</g>
<g>
	<g>
		<rect x="376" y="104" width="16" height="16"/>
	</g>
</g>
<g>
</g>
<g>
</g>
<g>
</g>
<g>
</g>
<g>
</g>
<g>
</g>
<g>
</g>
<g>
</g>
<g>
</g>
<g>
</g>
<g>
</g>
<g>
</g>
<g>
</g>
<g>
</g>
<g>
</g>
</svg>
