<?xml version="1.0" encoding="iso-8859-1"?>
<!-- Generator: Adobe Illustrator 19.0.0, SVG Export Plug-In . SVG Version: 6.00 Build 0)  -->
<svg version="1.1" id="Capa_1" xmlns="http://www.w3.org/2000/svg" xmlns:xlink="http://www.w3.org/1999/xlink" x="0px" y="0px"
	 viewBox="0 0 498.928 498.928" style="enable-background:new 0 0 498.928 498.928;" xml:space="preserve">
<g>
	<g>
		<path d="M345.464,130.928c-13.232,0-24,10.768-24,24s10.768,24,24,24s24-10.768,24-24S358.696,130.928,345.464,130.928z
			 M345.464,162.928c-4.416,0-8-3.592-8-8s3.584-8,8-8c4.416,0,8,3.592,8,8S349.88,162.928,345.464,162.928z"/>
	</g>
</g>
<g>
	<g>
		<path d="M451.872,436.808c29.464-36.792,45.592-82.336,45.592-129.88c0-73.136-37.32-139.56-100.088-177.84l-3.312-1.856
			c-9.52-16.64-27.304-27.936-47.728-28.256L380.384,40l-69.28-40L268.96,73.008c-25.808-42.952-72.832-70.08-123.496-70.08
			c-79.4,0-144,64.6-144,144s64.6,144,144,144c22.92,0,45.608-5.552,65.864-15.984l31.992,18.472l16-27.712l14.296,8.256
			l37.296-75.048c9.528,7.496,21.512,12.016,34.552,12.016c3.944,0,7.784-0.416,11.496-1.2c23.184,24.416,36.504,59.68,36.504,97.2
			c0,8.296-0.824,16.512-2.104,24.6c-1.912-0.36-3.872-0.6-5.896-0.6c-8.048,0-15.32,3.08-20.944,8H177.464
			c-13.232,0-24,10.768-24,24s10.768,24,24,24H364.52c1.264,1.104,2.576,2.144,4,3.04c-19.688,28.288-48.696,44.96-79.056,44.96
			h-152c-17.648,0-32,14.352-32,32s14.352,32,32,32h304c17.648,0,32-14.352,32-32C473.464,452.944,464.392,441.152,451.872,436.808z
			 M354.6,370.928H177.464c-4.416,0-8-3.584-8-8c0-4.416,3.584-8,8-8H354.6c-0.672,2.576-1.136,5.224-1.136,8
			S353.928,368.352,354.6,370.928z M316.968,21.856l41.56,24l-8,13.848l-41.56-24L316.968,21.856z M145.464,274.928
			c-70.576,0-128-57.424-128-128s57.424-128,128-128c48.08,0,92.472,27.48,114.168,70.232l-4.52,7.832l-13.44-7.76l-79.8,120.208
			l14.304,8.256l-16,27.704l34.216,19.76C178.968,271.544,162.296,274.928,145.464,274.928z M237.464,271.56l-55.424-32l8-13.848
			l55.424,32L237.464,271.56z M266.872,251.584l-82.24-47.48l62.064-93.496l45.76,26.416c-1.912,5.632-2.992,11.64-2.992,17.904
			c0,11.696,3.616,22.552,9.768,31.544L266.872,251.584z M268.968,105l32-55.424l41.56,24l-16.744,29
			c-10.584,3.984-19.648,11.064-26.072,20.168L268.968,105z M345.464,194.928c-22.056,0-40-17.944-40-40c0-22.056,17.944-40,40-40
			c22.056,0,40,17.944,40,40C385.464,176.984,367.52,194.928,345.464,194.928z M385.464,346.928c8.824,0,16,7.176,16,16
			c0,8.824-7.176,16-16,16c-8.824,0-16-7.176-16-16C369.464,354.104,376.64,346.928,385.464,346.928z M384.488,394.832
			c0.336,0.008,0.64,0.096,0.976,0.096c17.648,0,32-14.352,32-32c0-9.6-4.336-18.12-11.048-23.992
			c1.976-10.448,3.048-21.192,3.048-32.008c0-39.168-13.312-76.192-36.552-103.24c8.088-4.568,14.904-11.096,19.856-18.928
			c36.072,30.352,56.696,74.536,56.696,122.168c0,26.6-6.656,52.952-19.256,76.184l14.064,7.624
			c13.864-25.568,21.192-54.552,21.192-83.808c0-53.968-24.056-103.952-66-137.4c1.264-4.664,2-9.544,2-14.6
			c0-1.376-0.112-2.728-0.208-4.08c50.464,36.064,80.208,93.384,80.208,156.08c0,47.472-17.472,92.744-49.072,128h-88.016
			C359.88,425.36,373.616,411.728,384.488,394.832z M441.464,482.928h-304c-8.824,0-16-7.176-16-16c0-8.824,7.176-16,16-16h304
			c8.824,0,16,7.176,16,16C457.464,475.752,450.288,482.928,441.464,482.928z"/>
	</g>
</g>
<g>
	<g>
		<path d="M97.464,106.928c-22.056,0-40,17.944-40,40c0,22.056,17.944,40,40,40c22.056,0,40-17.944,40-40
			C137.464,124.872,119.52,106.928,97.464,106.928z M97.464,170.928c-13.232,0-24-10.768-24-24s10.768-24,24-24s24,10.768,24,24
			S110.696,170.928,97.464,170.928z"/>
	</g>
</g>
<g>
	<g>
		<path d="M121.464,42.928c0,13.232-10.768,24-24,24v16c22.056,0,40-17.944,40-40H121.464z"/>
	</g>
</g>
<g>
	<g>
		<path d="M97.464,210.928h-16c0,22.056,17.944,40,40,40v-16C108.232,234.928,97.464,224.16,97.464,210.928z"/>
	</g>
</g>
<g>
	<g>
		<rect x="57.464" y="82.928" width="16" height="16"/>
	</g>
</g>
<g>
	<g>
		<rect x="185.464" y="58.928" width="16" height="16"/>
	</g>
</g>
<g>
	<g>
		<rect x="177.464" y="122.928" width="16" height="16"/>
	</g>
</g>
<g>
	<g>
		<rect x="129.464" y="202.928" width="16" height="16"/>
	</g>
</g>
<g>
	<g>
		<rect x="89.464" y="138.928" width="16" height="16"/>
	</g>
</g>
<g>
</g>
<g>
</g>
<g>
</g>
<g>
</g>
<g>
</g>
<g>
</g>
<g>
</g>
<g>
</g>
<g>
</g>
<g>
</g>
<g>
</g>
<g>
</g>
<g>
</g>
<g>
</g>
<g>
</g>
</svg>
